<svg width="293" height="293" viewBox="0 0 293 293" fill="none" xmlns="http://www.w3.org/2000/svg">
<path fill-rule="evenodd" clip-rule="evenodd" d="M146.5 24.4166C79.0734 24.4166 24.4167 79.0733 24.4167 146.5C24.4167 213.927 79.0734 268.583 146.5 268.583C213.927 268.583 268.583 213.927 268.583 146.5C268.583 79.0733 213.927 24.4166 146.5 24.4166ZM103.771 115.979C103.771 110.368 104.876 104.812 107.023 99.6274C109.171 94.4432 112.318 89.7328 116.286 85.765C120.254 81.7973 124.964 78.6499 130.148 76.5025C135.332 74.3552 140.889 73.25 146.5 73.25C152.111 73.25 157.668 74.3552 162.852 76.5025C168.036 78.6499 172.746 81.7973 176.714 85.765C180.682 89.7328 183.829 94.4432 185.977 99.6274C188.124 104.812 189.229 110.368 189.229 115.979C189.229 127.312 184.727 138.18 176.714 146.193C168.701 154.206 157.832 158.708 146.5 158.708C135.168 158.708 124.299 154.206 116.286 146.193C108.273 138.18 103.771 127.312 103.771 115.979ZM222.9 207.346C213.758 218.839 202.14 228.119 188.911 234.494C175.682 240.87 161.185 244.176 146.5 244.167C131.815 244.176 117.318 240.87 104.089 234.494C90.8605 228.119 79.242 218.839 70.1003 207.346C89.89 193.148 116.895 183.125 146.5 183.125C176.105 183.125 203.11 193.148 222.9 207.346Z" fill="#486F48"/>
</svg>
